<?xml version="1.0" encoding="UTF-8"?>
<svg id="Capa_2" data-name="Capa 2" xmlns="http://www.w3.org/2000/svg" viewBox="0 0 976.72 1045.76">
  <defs>
    <style>
      .cls-1 {
        fill: #aa1916;
      }
    </style>
  </defs>
  <g id="Capa_1-2" data-name="Capa 1">
    <g>
      <path class="cls-1" d="m449.06,1045.76L676.65,1.34l22.73-1.34-227.6,1044.42-22.72,1.34Z"/>
      <path class="cls-1" d="m976.72,789.96c-27.57,70.57-78.84,111.37-176.98,111.37-122.4,0-192.42-93.18-192.42-205.1,0-121.3,78.84-206.2,196.83-206.2,98.69,0,153.28,49.07,172.57,114.13h-12.13c-18.2-55.69-68.37-103.65-160.44-103.65-109.72,0-184.7,78.29-184.7,195.18,0,106.41,68.92,194.63,181.39,194.63,89.87,0,137.29-37.49,163.75-100.9l12.13.55Z"/>
      <g>
        <path class="cls-1" d="m77.53,150.19v423.21H0V150.19h77.53Z"/>
        <path class="cls-1" d="m108.8,573.4V150.19h92.25c104.98,152.77,204.42,282.05,229.45,328.38h1.2c-3.92-50.66-3.32-122.62-3.32-191.7v-136.68h71.71v423.21h-86.82c-53.38-75.62-206.69-296.44-234.88-345.33h-1.2c3.32,53.55,3.32,113.6,3.32,188.59v156.74h-71.71Z"/>
      </g>
    </g>
  </g>
</svg>